<svg width="22" height="20" viewBox="0 0 22 20" fill="none" xmlns="http://www.w3.org/2000/svg">
<path d="M12.3966 0C7.74185 0 3.85322 3.32943 2.97928 7.73003L1.15388 5.44809L0 6.37149L2.95492 10.0651C3.09895 10.2446 3.31319 10.3421 3.53186 10.3421C3.64341 10.3421 3.75641 10.317 3.86207 10.2646L8.29443 8.04839L7.63327 6.7268L4.37624 8.35497C4.98051 4.4663 8.34097 1.47744 12.3966 1.47744C16.877 1.47744 20.5226 5.12303 20.5226 9.60343C20.5226 14.0838 16.877 17.7294 12.3966 17.7294V19.2069C17.6917 19.2069 22 14.8986 22 9.60343C22 4.30826 17.6917 0 12.3966 0Z" fill="#7EACAC"/>
</svg>
